<svg xmlns="http://www.w3.org/2000/svg" xmlns:xlink="http://www.w3.org/1999/xlink" viewBox="0 0 1920 871.88"><defs><linearGradient id="linear-gradient" x1="2.41" y1="776.8" x2="1917.6" y2="776.8" gradientUnits="userSpaceOnUse"><stop offset="0" stop-color="#383838"/><stop offset="0.56" stop-color="#707070"/><stop offset="1" stop-color="#383838"/></linearGradient><linearGradient id="linear-gradient-2" x1="960" y1="5823.29" x2="960" y2="5855.71" gradientTransform="matrix(1, 0, 0, -1, 0, 6627.96)" gradientUnits="userSpaceOnUse"><stop offset="0" stop-color="#010204"/><stop offset="1" stop-color="#010204" stop-opacity="0"/></linearGradient><linearGradient id="linear-gradient-3" x1="2.41" y1="831.09" x2="1917.6" y2="831.09" gradientUnits="userSpaceOnUse"><stop offset="0" stop-color="#010e19"/><stop offset="0.56" stop-color="#285e8c"/><stop offset="1" stop-color="#010e19"/></linearGradient><linearGradient id="linear-gradient-4" x1="2.41" y1="812.74" x2="1917.6" y2="812.74" gradientUnits="userSpaceOnUse"><stop offset="0" stop-color="#a3a3a3"/><stop offset="0.5" stop-color="#d6d6d6"/><stop offset="1" stop-color="#a3a3a3"/></linearGradient><linearGradient id="linear-gradient-5" y1="849.19" x2="1920" y2="849.19" gradientUnits="userSpaceOnUse"><stop offset="0" stop-color="#3fceee"/><stop offset="0.56" stop-color="#4ae2fa"/><stop offset="1" stop-color="#3fceee"/></linearGradient><linearGradient id="linear-gradient-6" y1="783.2" x2="1920" y2="783.2" xlink:href="#linear-gradient-5"/><linearGradient id="linear-gradient-7" y1="26.11" x2="1920" y2="26.11" xlink:href="#linear-gradient-5"/></defs><title>CSmp pg nav</title><g style="isolation:isolate"><g id="Layer_10" data-name="Layer 10"><g style="opacity:0.15"><polygon points="2.41 758.79 1545.48 758.79 1560.15 766.66 1917.6 766.66 1917.6 794.81 2.41 794.81 2.41 758.79" style="fill:url(#linear-gradient)"/><rect x="2.41" y="768.34" width="1915.19" height="40.18" style="mix-blend-mode:multiply;fill:url(#linear-gradient-2)"/><polygon points="7.46 845.19 1503.76 845.19 1550.7 867.68 1917.6 867.68 1917.6 794.49 2.41 794.49 2.41 845.12 7.46 845.19" style="fill:url(#linear-gradient-3)"/><polygon points="680.68 835.3 1234.25 835.3 1270.43 813.38 1758.44 813.38 1802.2 835.3 1917.6 835.3 1917.6 790.17 2.41 790.17 2.41 798.71 641.57 798.72 680.68 835.3" style="fill:url(#linear-gradient-4)"/></g><g style="mix-blend-mode:soft-light"><polyline points="0 870.88 264.88 870.88 308.26 827.5 644.3 827.5 673.72 849.19 1276.68 849.19 1310.5 827.5 1587.91 827.5 1629.73 869.32 1920 869.32" style="fill:none;stroke-miterlimit:10;stroke-width:2px;stroke:url(#linear-gradient-5)"/><polyline points="0 795.88 335.47 795.88 374.44 756.91 1139.91 756.91 1192.48 809.49 1411.98 809.49 1442.03 779.43 1920 779.43" style="fill:none;stroke-miterlimit:10;stroke-width:2px;stroke:url(#linear-gradient-6)"/><polyline points="0 47.08 300.17 47.08 346.25 1 617.83 1 650.19 24.04 1248.73 24.04 1286.97 1 1626.69 1 1676.91 51.22 1920 51.22" style="fill:none;stroke-miterlimit:10;stroke-width:2px;stroke:url(#linear-gradient-7)"/></g></g></g></svg>